<?xml version="1.0" encoding="UTF-8" standalone="no"?>
<!DOCTYPE svg PUBLIC "-//W3C//DTD SVG 1.0//EN" "http://www.w3.org/TR/2001/PR-SVG-20010719/DTD/svg10.dtd">
<svg width="31cm" height="37cm" viewBox="-1 -3 602 734" xmlns="http://www.w3.org/2000/svg" xmlns:xlink="http://www.w3.org/1999/xlink">
  <line style="fill: none; fill-opacity:0; stroke-width: 2; stroke-dasharray: 4; stroke: #000000" x1="160" y1="720" x2="420" y2="720"/>
  <line style="fill: none; fill-opacity:0; stroke-width: 2; stroke-dasharray: 4; stroke: #000000" x1="160" y1="70" x2="430" y2="70"/>
  <g>
    <rect style="fill: #ffffff" x="100" y="300" width="400" height="200"/>
    <rect style="fill: none; fill-opacity:0; stroke-width: 2; stroke: #000000" x="100" y="300" width="400" height="200"/>
    <text font-size="12.7998" style="fill: #000000;text-anchor:middle;font-family:sans-serif;font-style:normal;font-weight:normal" x="300" y="403.9">
      <tspan x="300" y="403.9"></tspan>
    </text>
  </g>
  <line style="fill: none; fill-opacity:0; stroke-width: 2; stroke: #000000" x1="100" y1="360" x2="0" y2="360"/>
  <line style="fill: none; fill-opacity:0; stroke-width: 2; stroke: #000000" x1="100" y1="440" x2="0" y2="440"/>
  <line style="fill: none; fill-opacity:0; stroke-width: 2; stroke: #000000" x1="180" y1="200" x2="180" y2="300"/>
  <line style="fill: none; fill-opacity:0; stroke-width: 2; stroke: #000000" x1="420" y1="200" x2="420" y2="300"/>
  <line style="fill: none; fill-opacity:0; stroke-width: 2; stroke: #000000" x1="260" y1="200" x2="260" y2="300"/>
  <line style="fill: none; fill-opacity:0; stroke-width: 2; stroke: #000000" x1="340" y1="200" x2="340" y2="300"/>
  <line style="fill: none; fill-opacity:0; stroke-width: 2; stroke: #000000" x1="600" y1="360" x2="500" y2="360"/>
  <line style="fill: none; fill-opacity:0; stroke-width: 2; stroke: #000000" x1="600" y1="440" x2="500" y2="440"/>
  <text font-size="12.7998" style="fill: #000000;text-anchor:start;font-family:sans-serif;font-style:normal;font-weight:normal" x="120" y="400">
    <tspan x="120" y="400">AC IN 20V</tspan>
  </text>
  <text font-size="12.7998" style="fill: #000000;text-anchor:start;font-family:sans-serif;font-style:normal;font-weight:normal" x="260" y="320">
    <tspan x="260" y="320">Logik 3,3V</tspan>
  </text>
  <text font-size="12.7998" style="fill: #000000;text-anchor:start;font-family:sans-serif;font-style:normal;font-weight:normal" x="380" y="100">
    <tspan x="380" y="100"></tspan>
  </text>
  <text font-size="12.7998" style="fill: #000000;text-anchor:start;font-family:sans-serif;font-style:normal;font-weight:normal" x="400" y="400">
    <tspan x="400" y="400">DCC Out 20V</tspan>
  </text>
  <text font-size="12.7998" style="fill: #000000;text-anchor:start;font-family:sans-serif;font-style:normal;font-weight:normal" x="180" y="280">
    <tspan x="180" y="280"> GND</tspan>
  </text>
  <text font-size="12.7998" style="fill: #000000;text-anchor:start;font-family:sans-serif;font-style:normal;font-weight:normal" x="260" y="280">
    <tspan x="260" y="280"> DCC IN</tspan>
  </text>
  <text font-size="12.7998" style="fill: #000000;text-anchor:start;font-family:sans-serif;font-style:normal;font-weight:normal" x="340" y="280">
    <tspan x="340" y="280"> U  3.3V</tspan>
  </text>
  <text font-size="10.1598" style="fill: #000000;text-anchor:start;font-family:sans-serif;font-style:normal;font-weight:normal" x="352.636" y="283.909">
    <tspan x="352.636" y="283.909">V</tspan>
  </text>
  <text font-size="12.7998" style="fill: #000000;text-anchor:start;font-family:sans-serif;font-style:normal;font-weight:normal" x="420" y="280">
    <tspan x="420" y="280"> ERR OUT</tspan>
  </text>
  <g>
    <line style="fill: none; fill-opacity:0; stroke-width: 2; stroke: #000000" x1="160" y1="100" x2="435.528" y2="100"/>
    <polyline style="fill: none; fill-opacity:0; stroke-width: 2; stroke: #000000" points="427.764,105 437.764,100 427.764,95 "/>
  </g>
  <g>
    <line style="fill: none; fill-opacity:0; stroke-width: 2; stroke: #000000" x1="160" y1="100" x2="160" y2="4.47214"/>
    <polyline style="fill: none; fill-opacity:0; stroke-width: 2; stroke: #000000" points="165,12.2361 160,2.23607 155,12.2361 "/>
  </g>
  <polyline style="fill: none; fill-opacity:0; stroke-width: 2; stroke: #ff0000" points="160,100 200,100 200,70 240,70 240,100 280,100 280,70 320,70 320,100 360,100 360,70 400,70 400,100 410,100 "/>
  <text font-size="12.7998" style="fill: #000000;text-anchor:start;font-family:sans-serif;font-style:normal;font-weight:normal" x="150" y="100">
    <tspan x="150" y="100">0</tspan>
  </text>
  <text font-size="12.7998" style="fill: #000000;text-anchor:start;font-family:sans-serif;font-style:normal;font-weight:normal" x="137.819" y="70">
    <tspan x="137.819" y="70">3.3</tspan>
  </text>
  <text font-size="12.7998" style="fill: #000000;text-anchor:end;font-family:sans-serif;font-style:normal;font-weight:normal" x="150" y="10">
    <tspan x="150" y="10">DCC IN</tspan>
    <tspan x="150" y="26">(V)</tspan>
  </text>
  <text font-size="12.7998" style="fill: #000000;text-anchor:start;font-family:sans-serif;font-style:normal;font-weight:normal" x="420" y="120">
    <tspan x="420" y="120">t</tspan>
  </text>
  <line style="fill: none; fill-opacity:0; stroke-width: 2; stroke-dasharray: 4; stroke: #000000" x1="160" y1="600" x2="430" y2="600"/>
  <text font-size="12.7998" style="fill: #000000;text-anchor:start;font-family:sans-serif;font-style:normal;font-weight:normal" x="380" y="660">
    <tspan x="380" y="660"></tspan>
  </text>
  <g>
    <line style="fill: none; fill-opacity:0; stroke-width: 2; stroke: #000000" x1="160" y1="660" x2="435.528" y2="660"/>
    <polyline style="fill: none; fill-opacity:0; stroke-width: 2; stroke: #000000" points="427.764,665 437.764,660 427.764,655 "/>
  </g>
  <g>
    <line style="fill: none; fill-opacity:0; stroke-width: 2; stroke: #000000" x1="160" y1="730" x2="160" y2="564.472"/>
    <polyline style="fill: none; fill-opacity:0; stroke-width: 2; stroke: #000000" points="165,572.236 160,562.236 155,572.236 "/>
  </g>
  <polyline style="fill: none; fill-opacity:0; stroke-width: 2; stroke: #ff0000" points="160,600 200,600 200,720 240,720 240,600 280,600 280,720 320,720 320,600 360,600 360,720 400,720 400,600 420,600 "/>
  <text font-size="12.7998" style="fill: #000000;text-anchor:start;font-family:sans-serif;font-style:normal;font-weight:normal" x="150" y="660">
    <tspan x="150" y="660">0</tspan>
  </text>
  <text font-size="12.7998" style="fill: #000000;text-anchor:start;font-family:sans-serif;font-style:normal;font-weight:normal" x="140" y="610">
    <tspan x="140" y="610">20</tspan>
  </text>
  <text font-size="12.7998" style="fill: #000000;text-anchor:end;font-family:sans-serif;font-style:normal;font-weight:normal" x="150" y="570">
    <tspan x="150" y="570">DCC OUT</tspan>
    <tspan x="150" y="586">(V)</tspan>
  </text>
  <text font-size="12.7998" style="fill: #000000;text-anchor:start;font-family:sans-serif;font-style:normal;font-weight:normal" x="420" y="680">
    <tspan x="420" y="680">t</tspan>
  </text>
  <text font-size="12.7998" style="fill: #000000;text-anchor:start;font-family:sans-serif;font-style:normal;font-weight:normal" x="137.274" y="720">
    <tspan x="137.274" y="720">-20</tspan>
  </text>
  <text font-size="12.7998" style="fill: #000000;text-anchor:start;font-family:sans-serif;font-style:normal;font-weight:normal" x="20" y="340">
    <tspan x="20" y="340">A</tspan>
  </text>
  <text font-size="12.7998" style="fill: #000000;text-anchor:start;font-family:sans-serif;font-style:normal;font-weight:normal" x="20" y="420">
    <tspan x="20" y="420">B</tspan>
  </text>
  <text font-size="12.7998" style="fill: #000000;text-anchor:start;font-family:sans-serif;font-style:normal;font-weight:normal" x="580" y="340">
    <tspan x="580" y="340">Y</tspan>
  </text>
  <text font-size="12.7998" style="fill: #000000;text-anchor:start;font-family:sans-serif;font-style:normal;font-weight:normal" x="580" y="420">
    <tspan x="580" y="420">Z</tspan>
  </text>
</svg>
